<svg width="12" height="12" viewBox="0 0 12 12" fill="none" xmlns="http://www.w3.org/2000/svg">
    <circle cx="6.1875" cy="6" r="4.875" fill="#C4C4C4" />
    <path fill-rule="evenodd" clip-rule="evenodd"
        d="M4.23483 7.42234C4.08839 7.56878 4.08839 7.80622 4.23484 7.95266C4.38128 8.09911 4.61872 8.09911 4.76517 7.95266L6.1875 6.53033L7.60984 7.95267C7.75628 8.09911 7.99372 8.09911 8.14017 7.95267C8.28661 7.80622 8.28661 7.56878 8.14017 7.42234L6.71783 6L8.14016 4.57767C8.28661 4.43122 8.28661 4.19378 8.14016 4.04734C7.99372 3.90089 7.75628 3.90089 7.60983 4.04734L6.1875 5.46967L4.76517 4.04734C4.61872 3.90089 4.38128 3.90089 4.23484 4.04734C4.08839 4.19378 4.08839 4.43122 4.23484 4.57767L5.65717 6L4.23483 7.42234Z"
        fill="white" />
</svg>